<svg xmlns="http://www.w3.org/2000/svg" width="28.94" height="32.989" viewBox="0 0 28.94 32.989">
  <g id="Group_105327" data-name="Group 105327" transform="translate(-1282.985 -3299.771)">
    <g id="Artificial_intelligence" data-name="Artificial intelligence" transform="translate(1282.985 3299.77)">
      <path id="Path_2092" data-name="Path 2092" d="M486.987,324.2a1.279,1.279,0,0,1-1.2-.834l-.906-2.431c-1.669-.051-4.583-.213-5.7-.74-1.227-.581-1.718-2.613-1.46-6.045-2.333-.818-2.495-1.712-2.558-2.074s-.193-1.063,2.528-7.114c-.256-1.418-.541-5.526,3.477-9.663a14.1,14.1,0,0,1,11.442-4.006c.6.062,7.034.859,9.786,6.639,2.529,5.312,2.227,9.587-1.039,14.179l1.759,6.729a1.28,1.28,0,1,1-2.478.647l-2.066-7.914.373-.495c3.031-4.022,3.351-7.4,1.139-12.041-2.19-4.6-7.69-5.189-7.746-5.2l-.069-.009a11.7,11.7,0,0,0-9.264,3.253c-3.764,3.874-2.787,7.5-2.743,7.655l.128.451-.19.439c-.959,2.127-2.028,4.671-2.384,5.778a10.1,10.1,0,0,0,1.614.585l1.058.286-.117,1.09a14.478,14.478,0,0,0,.08,4.572,29.655,29.655,0,0,0,5.341.451l.879.012,1.519,4.067a1.279,1.279,0,0,1-1.2,1.728Z" transform="translate(-475.143 -291.21)" fill="#fff"/>
      <path id="Path_2093" data-name="Path 2093" d="M499.571,326.156v4.876a1.067,1.067,0,0,1-2.134,0v-3.654l-4.431-2.552v-2.267a2.028,2.028,0,1,1,2.134,0V323.6Z" transform="translate(-484.834 -307.03)" fill="#fff"/>
      <path id="Path_2094" data-name="Path 2094" d="M511.106,309.1a2.028,2.028,0,0,1-.965,1.729v6.383a1.067,1.067,0,1,1-2.134,0v-6.387a2.027,2.027,0,1,1,3.1-1.725Z" transform="translate(-493.434 -300.304)" fill="#fff"/>
      <path id="Path_2095" data-name="Path 2095" d="M521.946,320.85a2,2,0,0,1-.965,1.72v2.262l-4.426,2.552v3.654a1.067,1.067,0,0,1-2.134,0v-4.881l4.426-2.558v-1.033a2.027,2.027,0,1,1,3.1-1.716Z" transform="translate(-497.657 -307.033)" fill="#fff"/>
    </g>
  </g>
</svg>